<?xml version="1.0" encoding="UTF-8"?>
<svg width="441px" height="441px" viewBox="0 0 441 441" version="1.1" xmlns="http://www.w3.org/2000/svg" xmlns:xlink="http://www.w3.org/1999/xlink">
    <!-- Generator: Sketch 49.2 (51160) - http://www.bohemiancoding.com/sketch -->
    <title>Group 13</title>
    <desc>Created with Sketch.</desc>
    <defs>
        <radialGradient cx="50%" cy="50%" fx="50%" fy="50%" r="314.471532%" id="radialGradient-1">
            <stop stop-color="#43AC4A" offset="0%"></stop>
            <stop stop-color="#000000" offset="100%"></stop>
        </radialGradient>
        <path d="M89.2042623,34.9387652 C108.144461,45.3302601 121.013748,65.6879042 121.013748,89.1009946 C121.013748,123.070154 93.9238981,150.607598 60.5068742,150.607598 C27.0898503,150.607598 1.63424829e-13,123.070154 1.63424829e-13,89.1009946 C1.63424829e-13,75.3551801 4.43586147,62.6625347 11.9318316,52.4215423 L40.2244217,0.00068014628 L89.2042623,34.9387652 Z" id="path-2"></path>
        <path d="M89.2042623,34.9387652 C108.144461,45.3302601 121.013748,65.6879042 121.013748,89.1009946 C121.013748,123.070154 93.9238981,150.607598 60.5068742,150.607598 C27.0898503,150.607598 -7.81597009e-14,123.070154 -7.81597009e-14,89.1009946 C-7.81597009e-14,75.3551801 4.43586147,62.6625347 11.9318316,52.4215423 L40.2244217,0.000680146279 L89.2042623,34.9387652 Z" id="path-4"></path>
        <path d="M89.2042623,34.9387652 C108.144461,45.3302601 121.013748,65.6879042 121.013748,89.1009946 C121.013748,123.070154 93.9238981,150.607598 60.5068742,150.607598 C27.0898503,150.607598 -5.68434189e-14,123.070154 -5.68434189e-14,89.1009946 C-5.68434189e-14,75.3551801 4.43586147,62.6625347 11.9318316,52.4215423 L40.2244217,0.000680146279 L89.2042623,34.9387652 Z" id="path-6"></path>
    </defs>
    <g id="Page-7" stroke="none" stroke-width="1" fill="none" fill-rule="evenodd" opacity="0.959295743">
        <g id="FB" transform="translate(-30.000000, -30.000000)">
            <g id="Group-13" transform="translate(30.000000, 30.000000)">
                <g id="Group-12">
                    <g id="Group-8">
                        <circle id="Oval-4" fill="url(#radialGradient-1)" cx="220.5" cy="220.5" r="220.5"></circle>
                        <g id="Group-11" transform="translate(29.498328, 29.498328)">
                            <g id="Group-5">
                                <path d="M236.376492,94.2327791 L215.02859,4.72168687" id="Line" stroke="#FFFFFF" stroke-width="12" stroke-linecap="square"></path>
                                <g id="Group-2" transform="translate(203.749273, 196.581558) rotate(57.000000) translate(-203.749273, -196.581558) translate(67.249273, 49.581558)">
                                    <g id="Group" transform="translate(142.761124, 92.303697) rotate(122.000000) translate(-142.761124, -92.303697) translate(81.761124, 16.803697)">
                                        <mask id="mask-3" fill="white">
                                            <use xlink:href="#path-2"></use>
                                        </mask>
                                        <use id="Combined-Shape" stroke="#FFFFFF" stroke-width="12" xlink:href="#path-2"></use>
                                        <ellipse id="Oval-3" mask="url(#mask-3)" cx="42.7107347" cy="12.4029787" rx="8.89806974" ry="8.85927047"></ellipse>
                                        <path d="M90.870352,25.7093368 L62.3965289,73.5493973" id="Line" stroke="#FFFFFF" stroke-width="12" stroke-linecap="square" mask="url(#mask-3)"></path>
                                        <path d="M40.0413138,-2.65778114 L77.4132067,162.12465" id="Line" stroke="#FFFFFF" stroke-width="12" stroke-linecap="square" mask="url(#mask-3)"></path>
                                        <path d="M55.8730683,77.6691092 L7.1892258,50.4132342" id="Line" stroke="#FFFFFF" stroke-width="12" stroke-linecap="square" mask="url(#mask-3)"></path>
                                        <path d="M122.973213,44.7440492 L73.1440222,124.477483" id="Line" stroke="#FFFFFF" stroke-width="12" stroke-linecap="square" mask="url(#mask-3)"></path>
                                        <path d="M68.4845795,128.146209 L-12.2703065,79.6265365" id="Line" stroke="#FFFFFF" stroke-width="12" stroke-linecap="square" mask="url(#mask-3)"></path>
                                    </g>
                                    <g id="Group" transform="translate(176.121106, 202.691827) rotate(239.000000) translate(-176.121106, -202.691827) translate(115.121106, 127.191827)">
                                        <mask id="mask-5" fill="white">
                                            <use xlink:href="#path-4"></use>
                                        </mask>
                                        <use id="Combined-Shape" stroke="#FFFFFF" stroke-width="12" xlink:href="#path-4"></use>
                                        <ellipse id="Oval-3" mask="url(#mask-5)" cx="42.7107347" cy="12.4029787" rx="8.89806974" ry="8.85927047"></ellipse>
                                        <path d="M90.3088755,26.5906784 L61.8350523,74.430739" id="Line" stroke="#FFFFFF" stroke-width="12" stroke-linecap="square" mask="url(#mask-5)"></path>
                                        <path d="M40.0413138,-2.65778114 L77.4132067,162.12465" id="Line" stroke="#FFFFFF" stroke-width="13" stroke-linecap="square" mask="url(#mask-5)"></path>
                                        <path d="M56.8021678,76.4671542 L8.11832531,49.2112792" id="Line" stroke="#FFFFFF" stroke-width="12" stroke-linecap="square" mask="url(#mask-5)"></path>
                                        <path d="M121.903555,48.7259876 L72.0743649,128.459422" id="Line" stroke="#FFFFFF" stroke-width="12" stroke-linecap="square" mask="url(#mask-5)"></path>
                                        <path d="M69.7996929,130.842591 L-10.9551931,82.3229187" id="Line" stroke="#FFFFFF" stroke-width="12" stroke-linecap="square" mask="url(#mask-5)"></path>
                                    </g>
                                    <g id="Group" transform="translate(0.000000, 101.533342)">
                                        <mask id="mask-7" fill="white">
                                            <use xlink:href="#path-6"></use>
                                        </mask>
                                        <use id="Combined-Shape" stroke="#FFFFFF" stroke-width="12" xlink:href="#path-6"></use>
                                        <ellipse id="Oval-3" mask="url(#mask-7)" cx="42.7107347" cy="12.4029787" rx="8.89806974" ry="8.85927047"></ellipse>
                                        <path d="M89.8705043,25.6918844 L61.3966812,73.5319449" id="Line" stroke="#FFFFFF" stroke-width="12" stroke-linecap="square" mask="url(#mask-7)"></path>
                                        <path d="M40.0413138,-2.65778114 L77.4132067,162.12465" id="Line" stroke="#FFFFFF" stroke-width="12" stroke-linecap="square" mask="url(#mask-7)"></path>
                                        <path d="M55.3807865,75.5082367 L6.69694399,48.2523617" id="Line" stroke="#FFFFFF" stroke-width="12" stroke-linecap="square" mask="url(#mask-7)"></path>
                                        <path d="M121.903555,48.7259876 L72.0743649,128.459422" id="Line" stroke="#FFFFFF" stroke-width="12" stroke-linecap="square" mask="url(#mask-7)"></path>
                                        <path d="M68.4845795,128.146209 L-12.2703065,79.6265365" id="Line" stroke="#FFFFFF" stroke-width="12" stroke-linecap="square" mask="url(#mask-7)"></path>
                                    </g>
                                </g>
                                <path d="M80.9754137,202.288304 L19.5757534,271.040684" id="Line" stroke="#FFFFFF" stroke-width="12" stroke-linecap="square"></path>
                                <ellipse id="Oval" stroke="#FFFFFF" stroke-width="13" cx="191.308499" cy="190.474315" rx="191.308499" ry="190.474315"></ellipse>
                                <path d="M254.789492,280.249885 L345.382863,298.367861" id="Line" stroke="#FFFFFF" stroke-width="12" stroke-linecap="square"></path>
                            </g>
                        </g>
                    </g>
                </g>
            </g>
        </g>
    </g>
</svg>