<?xml version="1.0" encoding="iso-8859-1"?>
<!-- Generator: Adobe Illustrator 19.0.0, SVG Export Plug-In . SVG Version: 6.00 Build 0)  -->
<svg xmlns="http://www.w3.org/2000/svg" xmlns:xlink="http://www.w3.org/1999/xlink" version="1.1" id="Layer_1" x="0px" y="0px" viewBox="0 0 512 512" style="enable-background:new 0 0 512 512;" xml:space="preserve" width="512px" height="512px">
<g>
	<g>
		<path d="M508.526,439.341c-20.682-50.971-68.521-86.371-122.939-91.507c-12.029-21.987-29.469-40.593-50.731-54.053    c-20.697-13.103-44.248-20.776-68.654-22.452v-56.157h40.489c81.222,0,147.299-66.078,147.299-147.299V17.183    c0-5.634-4.567-10.201-10.201-10.201h-50.689c-62.218,0-115.549,38.775-137.099,93.429c-21.552-54.654-74.882-93.429-137.1-93.429    H68.212c-5.634,0-10.201,4.567-10.201,10.201v50.69c0,81.222,66.078,147.299,147.299,147.299H245.8v56.157    c-24.406,1.676-47.956,9.35-68.654,22.452c-21.262,13.46-38.704,32.065-50.731,54.053C71.996,352.97,24.157,388.37,3.475,439.341    c-5.939,14.636-4.19,31.235,4.676,44.401c8.971,13.323,23.903,21.276,39.938,21.276h415.822c16.036,0,30.967-7.953,39.938-21.276    C512.716,470.575,514.465,453.977,508.526,439.341z M266.201,154.283c0-69.973,56.926-126.9,126.899-126.9h40.488v40.489    c0,69.972-56.926,126.898-126.898,126.898h-26.062l111.18-111.18c3.983-3.983,3.983-10.442,0-14.427    c-3.983-3.983-10.442-3.982-14.427,0l-111.18,111.182V154.283z M120.192,83.59l111.18,111.181H205.31    c-69.971,0-126.897-56.926-126.897-126.899V27.383h40.488c69.973,0,126.899,56.926,126.899,126.899v26.062L134.619,69.164    c-3.983-3.983-10.441-3.982-14.427,0C116.209,73.147,116.209,79.606,120.192,83.59z M486.927,472.346    c-5.252,7.798-13.641,12.271-23.016,12.271H48.09c-9.375,0-17.765-4.473-23.017-12.271c-5.144-7.64-6.126-16.875-2.694-25.335    c18.463-45.502,62.033-76.606,111-79.24c3.672-0.198,6.954-2.356,8.589-5.65c21.664-43.637,65.359-70.745,114.033-70.745    c42.986,0,82.077,21.153,105.551,56.151c-10.578,0.718-21.02,2.555-31.154,5.5c-5.41,1.572-8.522,7.232-6.949,12.642    c1.297,4.46,5.369,7.357,9.791,7.357c0.941,0,1.901-0.132,2.851-0.408c11.503-3.343,23.474-5.038,35.577-5.038l6.953,0.192    c48.967,2.634,92.537,33.738,111,79.24C493.054,455.471,492.073,464.706,486.927,472.346z" fill="#FFFFFF"/>
	</g>
</g>
<g>
	<g>
		<path d="M305.982,373.632c-3.047-4.738-9.359-6.107-14.097-3.06c-1.681,1.082-3.366,2.215-5.007,3.368    c-4.61,3.239-5.72,9.602-2.482,14.21c1.986,2.827,5.145,4.337,8.355,4.337c2.026,0,4.072-0.602,5.856-1.856    c1.414-0.995,2.866-1.971,4.315-2.903C307.66,384.682,309.03,378.371,305.982,373.632z" fill="#FFFFFF"/>
	</g>
</g>
<g>
</g>
<g>
</g>
<g>
</g>
<g>
</g>
<g>
</g>
<g>
</g>
<g>
</g>
<g>
</g>
<g>
</g>
<g>
</g>
<g>
</g>
<g>
</g>
<g>
</g>
<g>
</g>
<g>
</g>
</svg>
